<svg width="39" height="37" viewBox="0 0 39 37" fill="none" xmlns="http://www.w3.org/2000/svg">
<path d="M26.8125 11.5625V15.0312C26.8125 15.3379 26.6841 15.632 26.4555 15.8488C26.227 16.0657 25.917 16.1875 25.5938 16.1875H24.375V11.5625H14.625V16.1875H13.4062C13.083 16.1875 12.773 16.0657 12.5445 15.8488C12.3159 15.632 12.1875 15.3379 12.1875 15.0312V11.5625H7.3125V32.375H31.6875V11.5625H26.8125ZM12.1875 9.25C12.1875 7.41006 12.9579 5.64548 14.3293 4.34445C15.7006 3.04341 17.5606 2.3125 19.5 2.3125C21.4394 2.3125 23.2994 3.04341 24.6707 4.34445C26.0421 5.64548 26.8125 7.41006 26.8125 9.25H32.9062C33.2295 9.25 33.5395 9.37182 33.768 9.58866C33.9966 9.8055 34.125 10.0996 34.125 10.4062V33.5312C34.125 33.8379 33.9966 34.132 33.768 34.3488C33.5395 34.5657 33.2295 34.6875 32.9062 34.6875H6.09375C5.77052 34.6875 5.46052 34.5657 5.23196 34.3488C5.0034 34.132 4.875 33.8379 4.875 33.5312V10.4062C4.875 10.0996 5.0034 9.8055 5.23196 9.58866C5.46052 9.37182 5.77052 9.25 6.09375 9.25H12.1875ZM14.625 9.25H24.375C24.375 8.02337 23.8614 6.84699 22.9471 5.97963C22.0329 5.11228 20.7929 4.625 19.5 4.625C18.2071 4.625 16.9671 5.11228 16.0529 5.97963C15.1386 6.84699 14.625 8.02337 14.625 9.25V9.25Z" fill="#A7A7A7"/>
<path d="M7.3125 25.4375H31.6875V27.75H7.3125V25.4375Z" fill="#A7A7A7"/>
</svg>
