<svg width="38" height="34" viewBox="0 0 38 34" fill="none" xmlns="http://www.w3.org/2000/svg">
<path d="M37.0806 6.96762C36.491 5.60414 35.6409 4.36857 34.5778 3.33007C33.5139 2.28847 32.2595 1.46072 30.8829 0.891848C29.4555 0.299616 27.9244 -0.0035224 26.3787 3.08791e-05C24.2102 3.08791e-05 22.0944 0.593111 20.2558 1.71337C19.8159 1.98136 19.3981 2.2757 19.0022 2.5964C18.6063 2.2757 18.1884 1.98136 17.7486 1.71337C15.9099 0.593111 13.7942 3.08791e-05 11.6256 3.08791e-05C10.0641 3.08791e-05 8.55098 0.298768 7.12142 0.891848C5.74024 1.46296 4.49542 2.28449 3.42655 3.33007C2.36206 4.3674 1.51172 5.60326 0.923717 6.96762C0.312304 8.38662 0 9.89349 0 11.4443C0 12.9072 0.299108 14.4316 0.892926 15.9824C1.38997 17.2784 2.10256 18.6227 3.01308 19.9802C4.45583 22.1285 6.43963 24.369 8.90287 26.6403C12.9848 30.4053 17.0272 33.006 17.1987 33.1115L18.2412 33.7792C18.7031 34.0736 19.2969 34.0736 19.7587 33.7792L20.8012 33.1115C20.9728 33.0016 25.0107 30.4053 29.0971 26.6403C31.5603 24.369 33.5441 22.1285 34.9869 19.9802C35.8974 18.6227 36.6144 17.2784 37.107 15.9824C37.7008 14.4316 38 12.9072 38 11.4443C38.0044 9.89349 37.692 8.38662 37.0806 6.96762V6.96762ZM19.0022 30.3042C19.0022 30.3042 3.34298 20.2834 3.34298 11.4443C3.34298 6.96762 7.05104 3.33885 11.6256 3.33885C14.8411 3.33885 17.6298 5.13127 19.0022 7.74961C20.3746 5.13127 23.1633 3.33885 26.3787 3.33885C30.9533 3.33885 34.6614 6.96762 34.6614 11.4443C34.6614 20.2834 19.0022 30.3042 19.0022 30.3042Z" fill="#A7A7A7"/>
</svg>
