<svg width="21" height="21" viewBox="0 0 21 21" fill="none" xmlns="http://www.w3.org/2000/svg">
<path d="M11.1644 1.18617L13.3727 6.22289C13.4558 6.41244 13.5882 6.57623 13.7562 6.69714C13.9241 6.81806 14.1215 6.89168 14.3276 6.91031L19.7072 7.39266C20.3159 7.48125 20.5587 8.22773 20.1173 8.65758L16.065 12.0619C15.7369 12.3375 15.5876 12.7706 15.6778 13.189L16.8558 18.7031C16.9591 19.3085 16.3242 19.7712 15.7795 19.4841L11.0841 16.7344C10.907 16.6304 10.7053 16.5756 10.5 16.5756C10.2947 16.5756 10.093 16.6304 9.91593 16.7344L5.22046 19.4824C4.67742 19.7679 4.04085 19.3069 4.14421 18.7015L5.32218 13.1873C5.41078 12.769 5.26312 12.3359 4.93499 12.0602L0.88101 8.65922C0.441322 8.23101 0.684135 7.48289 1.29117 7.3943L6.67078 6.91195C6.87689 6.89332 7.07422 6.8197 7.24218 6.69878C7.41014 6.57787 7.54256 6.41408 7.62562 6.22453L9.8339 1.18781C10.1079 0.636563 10.8921 0.636563 11.1644 1.18617V1.18617Z" fill="#FDD835"/>
<path d="M11.0037 6.52475L10.6296 2.81366C10.6148 2.60694 10.5722 2.25256 10.9036 2.25256C11.1661 2.25256 11.3088 2.79889 11.3088 2.79889L12.431 5.77827C12.8543 6.91194 12.6804 7.30077 12.2719 7.53045C11.8027 7.79295 11.1103 7.58788 11.0037 6.52475V6.52475Z" fill="#FFFF8D"/>
<path d="M15.6319 11.7321L18.8508 9.22032C19.0099 9.08743 19.297 8.87579 19.0673 8.63462C18.8852 8.4443 18.393 8.71829 18.393 8.71829L15.5761 9.81915C14.7361 10.1095 14.1783 10.5394 14.1291 11.0808C14.0651 11.8027 14.7131 12.3588 15.6319 11.7321Z" fill="#F4B400"/>
</svg>
