<svg width="30" height="20" viewBox="0 0 45 34" fill="none" xmlns="http://www.w3.org/2000/svg">
<path d="M6.14224e-09 4.24847C6.14224e-09 3.12171 0.444474 2.04109 1.23564 1.24435C2.02681 0.447606 3.09987 0 4.21875 0H29.5312C30.6501 0 31.7232 0.447606 32.5144 1.24435C33.3055 2.04109 33.75 3.12171 33.75 4.24847V8.49694H36.6188C37.2508 8.49751 37.8747 8.6411 38.4443 8.91711C39.0138 9.19311 39.5145 9.59448 39.9094 10.0915L44.0747 15.3313C44.674 16.0852 45.0004 17.0223 45 17.988V24.0747C45 25.2014 44.5555 26.2821 43.7644 27.0788C42.9732 27.8755 41.9001 28.3231 40.7812 28.3231H39.375C39.375 29.8255 38.7824 31.2663 37.7275 32.3286C36.6726 33.391 35.2418 33.9878 33.75 33.9878C32.2582 33.9878 30.8274 33.391 29.7725 32.3286C28.7176 31.2663 28.125 29.8255 28.125 28.3231H14.0625C14.0641 29.0782 13.9158 29.826 13.6263 30.5225C13.3369 31.219 12.912 31.8502 12.3768 32.3789C11.8416 32.9077 11.2068 33.3234 10.5098 33.6016C9.81277 33.8797 9.06755 34.0148 8.31795 33.9987C7.56835 33.9827 6.8295 33.8159 6.14483 33.5081C5.46017 33.2004 4.84351 32.7579 4.3311 32.2067C3.8187 31.6555 3.42089 31.0067 3.16107 30.2984C2.90124 29.5901 2.78464 28.8367 2.81812 28.0824C1.9942 27.7904 1.2806 27.248 0.775812 26.5301C0.271028 25.8123 -4.71149e-05 24.9543 6.14224e-09 24.0747L6.14224e-09 4.24847ZM3.63938 25.3662C4.14788 24.5278 4.86425 23.8371 5.71809 23.362C6.57193 22.8868 7.53384 22.6436 8.5093 22.6561C9.48475 22.6687 10.4402 22.9367 11.2817 23.4337C12.1231 23.9307 12.8217 24.6396 13.3087 25.4908H28.8787C29.3735 24.6306 30.0833 23.9158 30.9375 23.4176V4.24847C30.9375 3.87288 30.7893 3.51268 30.5256 3.2471C30.2619 2.98152 29.9042 2.83231 29.5312 2.83231H4.21875C3.84579 2.83231 3.4881 2.98152 3.22438 3.2471C2.96066 3.51268 2.8125 3.87288 2.8125 4.24847V24.0747C2.81228 24.3473 2.89018 24.6141 3.03685 24.8432C3.18353 25.0723 3.39274 25.2539 3.63938 25.3662ZM33.75 22.6585C34.7374 22.6585 35.7073 22.9203 36.5624 23.4175C37.4175 23.9146 38.1276 24.6297 38.6213 25.4908H40.7812C41.1542 25.4908 41.5119 25.3416 41.7756 25.076C42.0393 24.8105 42.1875 24.4503 42.1875 24.0747V17.9852C42.1869 17.6638 42.0778 17.3522 41.8781 17.1015L37.7156 11.8617C37.5841 11.6959 37.4172 11.5619 37.2274 11.4697C37.0375 11.3776 36.8295 11.3296 36.6188 11.3293H33.75V22.6585ZM8.4375 25.4908C7.69158 25.4908 6.97621 25.7892 6.44876 26.3204C5.92132 26.8516 5.625 27.572 5.625 28.3231C5.625 29.0743 5.92132 29.7947 6.44876 30.3259C6.97621 30.8571 7.69158 31.1555 8.4375 31.1555C9.18342 31.1555 9.89879 30.8571 10.4262 30.3259C10.9537 29.7947 11.25 29.0743 11.25 28.3231C11.25 27.572 10.9537 26.8516 10.4262 26.3204C9.89879 25.7892 9.18342 25.4908 8.4375 25.4908ZM33.75 25.4908C33.0041 25.4908 32.2887 25.7892 31.7613 26.3204C31.2338 26.8516 30.9375 27.572 30.9375 28.3231C30.9375 29.0743 31.2338 29.7947 31.7613 30.3259C32.2887 30.8571 33.0041 31.1555 33.75 31.1555C34.4959 31.1555 35.2113 30.8571 35.7387 30.3259C36.2662 29.7947 36.5625 29.0743 36.5625 28.3231C36.5625 27.572 36.2662 26.8516 35.7387 26.3204C35.2113 25.7892 34.4959 25.4908 33.75 25.4908Z" fill="#999999"/>
</svg>
